<svg width="47" height="46" viewBox="0 0 47 46" fill="none" xmlns="http://www.w3.org/2000/svg">
<g clip-path="url(#clip0_38_4320)">
<path d="M23.2642 46C35.9667 46 46.2642 35.7025 46.2642 23C46.2642 10.2975 35.9667 0 23.2642 0C10.5616 0 0.26416 10.2975 0.26416 23C0.26416 35.7025 10.5616 46 23.2642 46Z" fill="#2AA81A"/>
<path d="M23.2642 46C35.9667 46 46.2642 35.7025 46.2642 23C46.2642 10.2975 35.9667 0 23.2642 0C10.5616 0 0.26416 10.2975 0.26416 23C0.26416 35.7025 10.5616 46 23.2642 46Z" fill="url(#paint0_linear_38_4320)"/>
<path d="M23.5656 11.7713C18.859 11.7713 14.3896 11.3527 12.6824 15.734C11.9772 17.5435 12.0797 19.8936 12.0797 23.2586C12.0797 26.2115 11.985 28.9867 12.6824 30.782C14.3857 35.1659 18.8914 34.7459 23.5631 34.7459C28.0701 34.7459 32.7171 35.2152 34.445 30.782C35.1515 28.9543 35.0478 26.6392 35.0478 23.2586C35.0478 18.771 35.2953 15.8739 33.119 13.6989C30.9153 11.4952 27.9353 11.7713 23.5605 11.7713H23.5656ZM22.5364 13.8414C32.3542 13.8259 33.6037 12.7344 32.9141 27.8966C32.6692 33.2591 28.586 32.6706 23.5669 32.6706C14.4155 32.6706 14.1523 32.4088 14.1523 23.2535C14.1523 13.9918 14.8782 13.8466 22.5364 13.8388V13.8414ZM29.6969 15.7482C28.936 15.7482 28.319 16.3652 28.319 17.1261C28.319 17.887 28.936 18.504 29.6969 18.504C30.4578 18.504 31.0748 17.887 31.0748 17.1261C31.0748 16.3652 30.4578 15.7482 29.6969 15.7482ZM23.5656 17.3594C20.3082 17.3594 17.6677 20.0012 17.6677 23.2586C17.6677 26.5161 20.3082 29.1565 23.5656 29.1565C26.8231 29.1565 29.4623 26.5161 29.4623 23.2586C29.4623 20.0012 26.8231 17.3594 23.5656 17.3594ZM23.5656 19.4295C28.6275 19.4295 28.634 27.0877 23.5656 27.0877C18.5051 27.0877 18.4973 19.4295 23.5656 19.4295Z" fill="white"/>
</g>
<defs>
<linearGradient id="paint0_linear_38_4320" x1="3.35268" y1="43.0031" x2="45.9748" y2="6.1069" gradientUnits="userSpaceOnUse">
<stop stop-color="#FFDD55"/>
<stop offset="0.5" stop-color="#FF543E"/>
<stop offset="1" stop-color="#C837AB"/>
</linearGradient>
<clipPath id="clip0_38_4320">
<rect width="46" height="46" fill="white" transform="translate(0.26416)"/>
</clipPath>
</defs>
</svg>
