<svg width="24" height="23" viewBox="0 0 24 23" fill="none" xmlns="http://www.w3.org/2000/svg">
<path d="M12.0003 0.0110856C7.2899 0.0110856 2.81692 -0.407601 1.10842 3.9737C0.402707 5.78325 0.505192 8.13334 0.505192 11.4984C0.505192 14.4512 0.410491 17.2265 1.10842 19.0218C2.81303 23.4057 7.32234 22.9857 11.9977 22.9857C16.5083 22.9857 21.159 23.4549 22.8883 19.0218C23.5953 17.1941 23.4915 14.879 23.4915 11.4984C23.4915 7.01079 23.7393 4.11369 21.5612 1.9386C19.3558 -0.265014 16.3734 0.0110856 11.9951 0.0110856H12.0003ZM10.9703 2.08118C20.7958 2.06563 22.0463 0.974195 21.3562 16.1363C21.111 21.4989 17.0246 20.9104 12.0016 20.9104C2.84287 20.9104 2.57952 20.6486 2.57952 11.4932C2.57952 2.23155 3.30599 2.08637 10.9703 2.07859V2.08118ZM18.1364 3.98796C17.3749 3.98796 16.7574 4.60497 16.7574 5.36586C16.7574 6.12675 17.3749 6.74377 18.1364 6.74377C18.8979 6.74377 19.5154 6.12675 19.5154 5.36586C19.5154 4.60497 18.8979 3.98796 18.1364 3.98796ZM12.0003 5.59918C8.74025 5.59918 6.09771 8.24093 6.09771 11.4984C6.09771 14.7558 8.74025 17.3963 12.0003 17.3963C15.2603 17.3963 17.9016 14.7558 17.9016 11.4984C17.9016 8.24093 15.2603 5.59918 12.0003 5.59918ZM12.0003 7.66928C17.0661 7.66928 17.0726 15.3275 12.0003 15.3275C6.93575 15.3275 6.92797 7.66928 12.0003 7.66928Z" fill="#EA860B"/>
</svg>
