<svg width="26" height="26" viewBox="0 0 26 26" fill="none" xmlns="http://www.w3.org/2000/svg">
<path d="M21.9555 4.18143C19.8752 2.07756 17.1112 0.786777 14.1626 0.542123C11.2141 0.297469 8.27517 1.11507 5.87656 2.8473C3.47796 4.57954 1.77771 7.11226 1.08278 9.9882C0.38785 12.8641 0.744041 15.8938 2.08704 18.5301L0.771254 24.9183C0.757165 24.9821 0.756619 25.0481 0.769651 25.1122C0.782684 25.1762 0.809004 25.2368 0.846912 25.29C0.901198 25.3706 0.978799 25.4326 1.06933 25.4679C1.15986 25.5032 1.259 25.51 1.35349 25.4873L7.60349 24.0038C10.2326 25.3116 13.2405 25.644 16.0917 24.942C18.943 24.2399 21.4526 22.5488 23.1739 20.1698C24.8952 17.7908 25.7165 14.8782 25.4915 11.9504C25.2666 9.02259 24.0101 6.2696 21.9456 4.18143H21.9555ZM20.0015 19.7637C18.5628 21.1999 16.7101 22.149 14.7039 22.4777C12.6978 22.8063 10.6391 22.4979 8.81731 21.5959L7.94231 21.1617L4.10349 22.0696V22.0202L4.9127 18.1485L4.48507 17.3064C3.55356 15.4797 3.22466 13.4048 3.54556 11.3795C3.86646 9.35427 4.82066 7.48271 6.27125 6.0334C8.09266 4.21389 10.5619 3.19186 13.1364 3.19186C15.7109 3.19186 18.1801 4.21389 20.0015 6.0334L20.0443 6.09261C21.842 7.9179 22.8456 10.3797 22.8363 12.9416C22.8271 15.5035 21.8058 17.958 19.9949 19.7702L20.0015 19.7637Z" fill="#2AA81A"/>
<path d="M19.6627 16.9479C19.1923 17.6881 18.4456 18.5927 17.5147 18.8196C15.8699 19.2144 13.3666 18.8196 10.2318 15.9216L10.1923 15.8854C7.46533 13.3394 6.74165 11.2177 6.90283 9.53674C6.99823 8.5795 7.79428 7.71766 8.46533 7.15187C8.57202 7.06191 8.69828 6.99815 8.83401 6.9657C8.96974 6.93324 9.11118 6.93298 9.24703 6.96495C9.38288 6.99691 9.50936 7.06021 9.61638 7.14978C9.7234 7.23935 9.80798 7.35272 9.86336 7.48082L10.8732 9.76371C10.9392 9.91066 10.9639 10.0728 10.9448 10.2327C10.9256 10.3926 10.8634 10.5443 10.7647 10.6716L10.2515 11.3295C10.1449 11.4661 10.0813 11.6313 10.069 11.8042C10.0567 11.977 10.0962 12.1496 10.1824 12.2999C10.6699 13.0183 11.2531 13.6669 11.916 14.2275C12.6292 14.9139 13.438 15.4934 14.3173 15.9479C14.4778 16.0126 14.6539 16.0281 14.8232 15.9923C14.9925 15.9566 15.1473 15.8713 15.268 15.7473L15.8568 15.1486C15.9688 15.0281 16.112 14.941 16.2705 14.8968C16.429 14.8527 16.5966 14.8533 16.7548 14.8986L19.1561 15.5861C19.2922 15.6248 19.4172 15.695 19.5211 15.791C19.625 15.887 19.7049 16.0062 19.7542 16.1387C19.8035 16.2713 19.8209 16.4137 19.805 16.5543C19.7892 16.6948 19.7404 16.8297 19.6627 16.9479Z" fill="#2AA81A"/>
</svg>
