<svg width="47" height="46" viewBox="0 0 47 46" fill="none" xmlns="http://www.w3.org/2000/svg">
<g clip-path="url(#clip0_38_4310)">
<path d="M23.2642 46C35.9667 46 46.2642 35.7025 46.2642 23C46.2642 10.2975 35.9667 0 23.2642 0C10.5616 0 0.26416 10.2975 0.26416 23C0.26416 35.7025 10.5616 46 23.2642 46Z" fill="#039BE5"/>
<path d="M10.7886 22.5017L32.9644 13.9514C33.9937 13.5796 34.8926 14.2025 34.5591 15.7589L34.561 15.7569L30.7852 33.5455C30.5053 34.8067 29.7559 35.1134 28.7075 34.5192L22.9575 30.2814L20.1841 32.9533C19.8774 33.26 19.6187 33.5187 19.0245 33.5187L19.4328 27.6671L30.0894 18.0397C30.5533 17.6314 29.9859 17.4014 29.3745 17.8078L16.2051 26.0993L10.5279 24.3283C9.29551 23.9373 9.26868 23.0959 10.7886 22.5017Z" fill="white"/>
</g>
<defs>
<clipPath id="clip0_38_4310">
<rect width="46" height="46" fill="white" transform="translate(0.26416)"/>
</clipPath>
</defs>
</svg>
