<svg width="47" height="46" viewBox="0 0 47 46" fill="none" xmlns="http://www.w3.org/2000/svg">
<g clip-path="url(#clip0_38_4313)">
<path d="M23.2642 46C35.9667 46 46.2642 35.7025 46.2642 23C46.2642 10.2975 35.9667 0 23.2642 0C10.5616 0 0.26416 10.2975 0.26416 23C0.26416 35.7025 10.5616 46 23.2642 46Z" fill="#2AA81A"/>
<path d="M31.3778 14.8864C29.4639 12.9508 26.921 11.7633 24.2084 11.5382C21.4957 11.3132 18.7919 12.0653 16.5852 13.659C14.3785 15.2527 12.8142 17.5828 12.1749 20.2286C11.5356 22.8745 11.8633 25.6618 13.0988 28.0872L11.8883 33.9643C11.8753 34.023 11.8748 34.0838 11.8868 34.1427C11.8988 34.2016 11.923 34.2573 11.9579 34.3063C12.0078 34.3804 12.0792 34.4375 12.1625 34.47C12.2458 34.5024 12.337 34.5086 12.424 34.4878L18.174 33.123C20.5927 34.3261 23.36 34.632 25.9831 33.9861C28.6063 33.3402 30.9151 31.7844 32.4987 29.5957C34.0823 27.407 34.8379 24.7274 34.631 22.0338C34.424 19.3403 33.268 16.8075 31.3687 14.8864H31.3778ZM29.5801 29.2221C28.2565 30.5434 26.552 31.4166 24.7064 31.7189C22.8607 32.0213 20.9667 31.7376 19.2907 30.9077L18.4857 30.5082L14.954 31.3435V31.2981L15.6984 27.7361L15.305 26.9614C14.448 25.2808 14.1454 23.3719 14.4407 21.5087C14.7359 19.6454 15.6138 17.9236 16.9483 16.5902C18.624 14.9163 20.8957 13.976 23.2642 13.976C25.6328 13.976 27.9044 14.9163 29.5801 16.5902L29.6195 16.6447C31.2734 18.324 32.1967 20.5888 32.1882 22.9457C32.1797 25.3027 31.2401 27.5608 29.5741 29.2281L29.5801 29.2221Z" fill="white"/>
<path d="M29.2684 26.6315C28.8356 27.3124 28.1486 28.1447 27.2922 28.3535C25.779 28.7166 23.476 28.3535 20.5919 25.6873L20.5556 25.654C18.0468 23.3116 17.381 21.3597 17.5293 19.8132C17.6171 18.9326 18.3494 18.1397 18.9668 17.6191C19.065 17.5364 19.1811 17.4777 19.306 17.4479C19.4309 17.418 19.561 17.4178 19.686 17.4472C19.8109 17.4766 19.9273 17.5348 20.0258 17.6172C20.1242 17.6996 20.202 17.8039 20.253 17.9218L21.1821 20.022C21.2427 20.1572 21.2655 20.3064 21.2479 20.4535C21.2303 20.6006 21.173 20.7402 21.0822 20.8573L20.6101 21.4626C20.512 21.5882 20.4535 21.7402 20.4422 21.8993C20.4309 22.0583 20.4672 22.2171 20.5465 22.3553C20.995 23.0163 21.5316 23.6129 22.1414 24.1287C22.7976 24.7602 23.5417 25.2933 24.3506 25.7115C24.4983 25.771 24.6603 25.7852 24.816 25.7524C24.9718 25.7195 25.1142 25.641 25.2252 25.5269L25.7669 24.9761C25.87 24.8653 26.0018 24.7851 26.1476 24.7445C26.2934 24.7039 26.4476 24.7045 26.5931 24.7461L28.8023 25.3786C28.9275 25.4142 29.0426 25.4788 29.1381 25.5672C29.2337 25.6555 29.3072 25.7651 29.3526 25.8871C29.3979 26.0091 29.414 26.14 29.3993 26.2693C29.3847 26.3987 29.3399 26.5227 29.2684 26.6315Z" fill="white"/>
</g>
<defs>
<clipPath id="clip0_38_4313">
<rect width="46" height="46" fill="white" transform="translate(0.26416)"/>
</clipPath>
</defs>
</svg>
