<svg width="24" height="23" viewBox="0 0 24 23" fill="none" xmlns="http://www.w3.org/2000/svg">
<path d="M20.1857 3.38688C18.2558 1.45133 15.6916 0.263805 12.9562 0.0387237C10.2208 -0.186358 7.49433 0.565831 5.26911 2.15949C3.0439 3.75315 1.46655 6.08325 0.821859 8.72912C0.177165 11.375 0.507609 14.1622 1.75353 16.5877L0.532854 22.4648C0.519784 22.5235 0.519277 22.5842 0.531367 22.6432C0.543457 22.7021 0.567875 22.7578 0.603043 22.8068C0.653405 22.8809 0.725396 22.938 0.809382 22.9704C0.893367 23.0029 0.985343 23.0091 1.073 22.9883L6.87121 21.6235C9.31027 22.8266 12.1007 23.1325 14.7459 22.4866C17.391 21.8407 19.7192 20.2849 21.3161 18.0962C22.9129 15.9075 23.6749 13.2279 23.4662 10.5343C23.2575 7.84076 22.0918 5.308 20.1766 3.38688H20.1857ZM18.373 17.7225C17.0383 19.0438 15.3195 19.9171 13.4584 20.2194C11.5973 20.5218 9.68738 20.2381 7.99728 19.4082L7.18553 19.0087L3.62421 19.844V19.7986L4.37493 16.2366L3.97821 15.4619C3.11404 13.7813 2.80891 11.8724 3.10661 10.0092C3.40432 8.1459 4.28954 6.42406 5.63527 5.0907C7.32501 3.41675 9.61574 2.47648 12.0041 2.47648C14.3926 2.47648 16.6833 3.41675 18.373 5.0907L18.4127 5.14517C20.0805 6.82444 21.0115 9.08927 21.0029 11.4462C20.9943 13.8032 20.0469 16.0613 18.3669 17.7286L18.373 17.7225Z" fill="#EA860B"/>
<path d="M18.0589 15.132C17.6225 15.8129 16.9297 16.6452 16.0661 16.854C14.5403 17.2171 12.2179 16.854 9.30967 14.1878L9.27305 14.1545C6.74321 11.8121 6.07183 9.86016 6.22137 8.31371C6.30986 7.43305 7.04837 6.64016 7.67092 6.11963C7.7699 6.03687 7.88703 5.97821 8.01294 5.94835C8.13886 5.91849 8.27008 5.91826 8.39611 5.94766C8.52213 5.97707 8.63948 6.0353 8.73876 6.11771C8.83804 6.20012 8.9165 6.30441 8.96789 6.42226L9.90475 8.52253C9.96591 8.65772 9.98885 8.80687 9.97111 8.954C9.95337 9.10113 9.89563 9.2407 9.80405 9.35779L9.32798 9.96305C9.22903 10.0887 9.17009 10.2407 9.15867 10.3997C9.14726 10.5588 9.18389 10.7175 9.2639 10.8558C9.7161 11.5168 10.2572 12.1134 10.8721 12.6292C11.5338 13.2607 12.2841 13.7938 13.0999 14.212C13.2487 14.2715 13.4121 14.2857 13.5692 14.2528C13.7262 14.22 13.8699 14.1415 13.9818 14.0274L14.5281 13.4766C14.632 13.3658 14.7648 13.2856 14.9119 13.245C15.0589 13.2044 15.2144 13.205 15.3612 13.2466L17.5889 13.8791C17.7151 13.9147 17.8311 13.9793 17.9275 14.0676C18.0239 14.156 18.098 14.2656 18.1437 14.3876C18.1895 14.5095 18.2057 14.6405 18.1909 14.7698C18.1762 14.8992 18.1309 15.0232 18.0589 15.132Z" fill="#EA860B"/>
</svg>
